<?xml version="1.0" encoding="UTF-8" standalone="no"?>
<!-- Created with Inkscape (http://www.inkscape.org/) -->

<svg
   xmlns:dc="http://purl.org/dc/elements/1.1/"
   xmlns:cc="http://creativecommons.org/ns#"
   xmlns:rdf="http://www.w3.org/1999/02/22-rdf-syntax-ns#"
   xmlns:svg="http://www.w3.org/2000/svg"
   xmlns="http://www.w3.org/2000/svg"
   xmlns:xlink="http://www.w3.org/1999/xlink"
   xmlns:sodipodi="http://sodipodi.sourceforge.net/DTD/sodipodi-0.dtd"
   xmlns:inkscape="http://www.inkscape.org/namespaces/inkscape"
   width="300"
   height="439.1098"
   id="svg2"
   version="1.1"
   inkscape:version="0.48.2 r9819"
   sodipodi:docname="healthAward.svg"
   inkscape:export-filename="/Users/manager/Google Drive/ServiceRage/Creative Assets/Award Icon/SRAwardInsuranceWhite.png"
   inkscape:export-xdpi="137.87453"
   inkscape:export-ydpi="137.87453">
  <defs
     id="defs4">
    <clipPath
       clipPathUnits="userSpaceOnUse"
       id="clipPath18-5">
      <path
         d="M 0,0 56,0 56,56 0,56 0,0 z"
         id="path20-0"
         inkscape:connector-curvature="0" />
    </clipPath>
    <clipPath
       clipPathUnits="userSpaceOnUse"
       id="clipPath4299">
      <path
         d="M 0,0 56,0 56,56 0,56 0,0 z"
         id="path4301"
         inkscape:connector-curvature="0" />
    </clipPath>
    <clipPath
       clipPathUnits="userSpaceOnUse"
       id="clipPath4303">
      <path
         d="M 0,0 56,0 56,56 0,56 0,0 z"
         id="path4305"
         inkscape:connector-curvature="0" />
    </clipPath>
    <clipPath
       clipPathUnits="userSpaceOnUse"
       id="clipPath4307">
      <path
         d="M 0,0 56,0 56,56 0,56 0,0 z"
         id="path4309"
         inkscape:connector-curvature="0" />
    </clipPath>
    <clipPath
       clipPathUnits="userSpaceOnUse"
       id="clipPath4311">
      <path
         d="M 0,0 56,0 56,56 0,56 0,0 z"
         id="path4313"
         inkscape:connector-curvature="0" />
    </clipPath>
    <path
       style="fill:none;stroke:none"
       d="m 106.66526,875.58549 c 9.94005,-62.39191 78.12313,-42.70809 76.10387,-0.29962"
       id="path3149-3-8-6"
       inkscape:connector-curvature="0"
       transform="translate(15.840988,0)"
       sodipodi:nodetypes="cc" />
  </defs>
  <sodipodi:namedview
     id="base"
     pagecolor="#ffffff"
     bordercolor="#666666"
     borderopacity="1.0"
     inkscape:pageopacity="0"
     inkscape:pageshadow="2"
     inkscape:zoom="1"
     inkscape:cx="102.45243"
     inkscape:cy="228.25157"
     inkscape:document-units="px"
     inkscape:current-layer="layer1"
     showgrid="false"
     inkscape:window-width="1254"
     inkscape:window-height="756"
     inkscape:window-x="0"
     inkscape:window-y="0"
     inkscape:window-maximized="0"
     fit-margin-top="0"
     fit-margin-left="0"
     fit-margin-right="0"
     fit-margin-bottom="0" />
  <metadata
     id="metadata7">
    <rdf:RDF>
      <cc:Work
         rdf:about="">
        <dc:format>image/svg+xml</dc:format>
        <dc:type
           rdf:resource="http://purl.org/dc/dcmitype/StillImage" />
        <dc:title></dc:title>
      </cc:Work>
    </rdf:RDF>
  </metadata>
  <g
     inkscape:label="Layer 1"
     inkscape:groupmode="layer"
     id="layer1"
     transform="translate(-349.2987,31.15382)">
    <path
       style="fill:#282828;fill-opacity:1"
       inkscape:connector-curvature="0"
       id="path4143"
       d="M 649.2987,105.81777 626.00386,84.981985 635.80921,55.258645 606.70059,43.92082 605.78728,12.66496 574.53141,11.747215 562.88619,-17.36576 533.1586,-7.560425 512.32282,-31.15382 l -24.51112,19.61064 -27.57611,-15.013155 -16.2427,26.66277 -31.25588,-4.5975 -6.12999,30.641085 -30.64552,6.437355 4.59307,30.948465 -26.96575,16.545675 15.01315,27.576095 -19.30327,24.51553 23.59339,20.53278 -10.11271,29.72337 29.11303,11.64517 0.91772,31.25147 31.25589,0.92213 11.33782,29.11298 29.72337,-9.80533 20.83578,23.5934 24.82293,-19.91804 27.57611,15.01755 16.2427,-26.65836 30.94406,4.59749 6.12978,-30.64548 30.94853,-6.12999 -4.5931,-30.94847 26.65399,-16.54564 -15.01319,-27.58052 19.6239,-24.51988 z m -96.21784,85.1917 H 444.60324 v -10.11269 c 2.63021,-0.17997 6.51201,-0.51816 12.25998,-1.22511 5.74355,-0.70699 9.84485,-1.44468 11.95259,-2.14726 2.6302,-0.87384 4.63702,-2.18678 6.12999,-4.29012 1.48855,-2.1033 2.45443,-5.20344 2.45443,-8.88318 V 80.999245 H 443.9973 v -12.56292 h 7.04772 c 7.63158,0 14.35005,-0.78162 19.91805,-2.45025 5.5722,-1.668615 10.10388,-3.75876 13.78806,-6.12996 3.77185,-2.454615 7.08702,-4.724835 9.49796,-7.355085 2.41489,-2.630295 4.11433,-5.027835 5.515,-7.04772 h 22.98303 c -0.26343,5.69964 -0.3511,12.290685 -0.61896,19.918035 -0.25924,7.631715 -0.29875,14.477445 -0.29875,20.528385 v 76.9145 c 0,3.15721 0.47432,5.94556 1.83545,8.27283 1.36138,2.32728 3.58327,4.2901 6.13,5.51522 2.28351,1.04946 5.98954,1.87938 11.33781,2.75762 5.35293,0.87383 9.40588,1.35685 11.95261,1.53249 v 10.11708 z" />
    <polygon
       style="fill:#2dcedb;fill-opacity:1"
       transform="matrix(4.3910995,0,0,4.3910995,279.74805,-31.153955)"
       id="polygon4145"
       points="41.521,100 48.57,81.856 54.222,98.047 63.293,85.834 79.832,89.045 71.389,65.178 63.782,64.062 59.665,70.83 52.688,67.062 46.476,71.947 41.242,66.016 33.706,68.598 30.774,61.131 27.495,61.062 27.495,61.061 16.26,90.3 32.868,87.509 " />
    <path
       sodipodi:end="6.3980685"
       sodipodi:start="0.116181"
       transform="matrix(1.8814452,0,0,1.8814452,548.72827,-32.445575)"
       d="m 33.495532,89.482105 c -3.824968,35.447305 -33.49447852,60.829375 -66.268707,56.692445 -32.774229,-4.13694 -56.242241,-36.2263 -52.417273,-71.673607 3.824968,-35.447305 33.494479,-60.829376 66.268707,-56.692442 32.744156,4.133137 56.205171,36.170186 52.426212,71.5903 l -59.351929,-7.407277 z"
       sodipodi:ry="64.618645"
       sodipodi:rx="59.745762"
       sodipodi:cy="81.991524"
       sodipodi:cx="-25.847458"
       id="path4147"
       style="fill:#282828;fill-opacity:1;stroke:none"
       sodipodi:type="arc" />
    <text
       transform="matrix(2.9386324,0,0,2.879958,26.64789,-2376.185)"
       sodipodi:linespacing="125%"
       id="text4149"
       style="font-size:12px;font-style:normal;font-variant:normal;font-weight:normal;font-stretch:normal;text-align:start;line-height:125%;letter-spacing:0px;word-spacing:0px;writing-mode:lr-tb;text-anchor:start;fill:#ffffff;fill-opacity:1;stroke:none;font-family:Arial Black;-inkscape-font-specification:'Arial Black,'"
       xml:space="preserve"><textPath
         style="font-size:8.81710052px;line-height:125%;fill:#f0f0f0;fill-opacity:1"
         id="textPath4151"
         xlink:href="#path3149-3-8-6">      Health  Insurance</textPath></text>
    <text
       sodipodi:linespacing="125%"
       id="text4155"
       y="92.449615"
       x="426.53531"
       style="font-size:52.69318771px;font-style:normal;font-variant:normal;font-weight:normal;font-stretch:normal;text-align:start;line-height:125%;letter-spacing:0px;word-spacing:0px;writing-mode:lr-tb;text-anchor:start;fill:#ffffff;fill-opacity:1;stroke:none;font-family:Arial Black;-inkscape-font-specification:'Arial Black,'"
       xml:space="preserve"><tspan
         style="font-size:30.7376976px;fill:#a0a0a0;fill-opacity:1"
         id="tspan4157"
         y="92.449615"
         x="426.53531"
         sodipodi:role="line">Happiest</tspan></text>
    <text
       sodipodi:linespacing="125%"
       id="text4159"
       y="133.42163"
       x="408.2269"
       style="font-size:52.69318771px;font-style:normal;font-variant:normal;font-weight:normal;font-stretch:normal;text-align:start;line-height:125%;letter-spacing:0px;word-spacing:0px;writing-mode:lr-tb;text-anchor:start;fill:#ffffff;fill-opacity:1;stroke:none;font-family:Arial Black;-inkscape-font-specification:'Arial Black,'"
       xml:space="preserve"><tspan
         style="font-size:30.7376976px;fill:#a0a0a0;fill-opacity:1"
         id="tspan4161"
         y="133.42163"
         x="408.2269"
         sodipodi:role="line">Customers</tspan></text>
    <text
       sodipodi:linespacing="125%"
       id="text4163"
       y="233.41849"
       x="453.96661"
       style="font-size:35.12879944px;font-style:normal;font-variant:normal;font-weight:normal;font-stretch:normal;text-align:start;line-height:125%;letter-spacing:0px;word-spacing:0px;writing-mode:lr-tb;text-anchor:start;fill:#ffffff;fill-opacity:1;stroke:none;font-family:Arial Black;-inkscape-font-specification:'Arial Black,'"
       xml:space="preserve"><tspan
         style="font-size:35.12879944px;font-style:normal;font-variant:normal;font-weight:normal;font-stretch:normal;fill:#f0f0f0;fill-opacity:1;font-family:Arial Black;-inkscape-font-specification:Arial Black"
         id="tspan4165"
         y="233.41849"
         x="453.96661"
         sodipodi:role="line">2014</tspan></text>
    <g
       style="fill:#2dcedb;fill-opacity:1"
       transform="matrix(0.70571241,0,0,-0.70571241,395.14365,187.10743)"
       id="g4167">
      <g
         style="fill:#2dcedb;fill-opacity:1"
         clip-path="url(#clipPath18-5)"
         id="g4169">
        <path
           inkscape:connector-curvature="0"
           id="path4171"
           style="fill:#2dcedb;fill-opacity:1;fill-rule:nonzero;stroke:none"
           d="M 55.058,36 37.024,36 28.692,55.316 C 28.505,55.773 28.253,56 28.003,56 27.753,56 27.497,55.773 27.306,55.316 L 18.981,36 0.94,36 C -0.05,36 -0.296,35.418 0.386,34.707 L 14.198,19.769 7.001,1.059 C 6.743,0.391 6.896,0 7.335,0 7.507,0 7.718,0.059 7.964,0.184 L 28.003,10.18 48.038,0.184 C 48.284,0.059 48.499,0 48.667,0 c 0.439,0 0.592,0.391 0.338,1.059 l -7.201,18.71 13.812,14.938 C 56.294,35.414 56.052,36 55.058,36" />
      </g>
    </g>
    <g
       id="g4173"
       transform="matrix(0.70571241,0,0,-0.70571241,437.43313,187.10743)"
       style="fill:#2dcedb;fill-opacity:1">
      <g
         id="g4175"
         clip-path="url(#clipPath18-5)"
         style="fill:#2dcedb;fill-opacity:1">
        <path
           d="M 55.058,36 37.024,36 28.692,55.316 C 28.505,55.773 28.253,56 28.003,56 27.753,56 27.497,55.773 27.306,55.316 L 18.981,36 0.94,36 C -0.05,36 -0.296,35.418 0.386,34.707 L 14.198,19.769 7.001,1.059 C 6.743,0.391 6.896,0 7.335,0 7.507,0 7.718,0.059 7.964,0.184 L 28.003,10.18 48.038,0.184 C 48.284,0.059 48.499,0 48.667,0 c 0.439,0 0.592,0.391 0.338,1.059 l -7.201,18.71 13.812,14.938 C 56.294,35.414 56.052,36 55.058,36"
           style="fill:#2dcedb;fill-opacity:1;fill-rule:nonzero;stroke:none"
           id="path4177"
           inkscape:connector-curvature="0" />
      </g>
    </g>
    <g
       id="g4179"
       transform="matrix(0.70571241,0,0,-0.70571241,481.41384,187.10743)"
       style="fill:#2dcedb;fill-opacity:1">
      <g
         id="g4181"
         clip-path="url(#clipPath18-5)"
         style="fill:#2dcedb;fill-opacity:1">
        <path
           d="M 55.058,36 37.024,36 28.692,55.316 C 28.505,55.773 28.253,56 28.003,56 27.753,56 27.497,55.773 27.306,55.316 L 18.981,36 0.94,36 C -0.05,36 -0.296,35.418 0.386,34.707 L 14.198,19.769 7.001,1.059 C 6.743,0.391 6.896,0 7.335,0 7.507,0 7.718,0.059 7.964,0.184 L 28.003,10.18 48.038,0.184 C 48.284,0.059 48.499,0 48.667,0 c 0.439,0 0.592,0.391 0.338,1.059 l -7.201,18.71 13.812,14.938 C 56.294,35.414 56.052,36 55.058,36"
           style="fill:#2dcedb;fill-opacity:1;fill-rule:nonzero;stroke:none"
           id="path4183"
           inkscape:connector-curvature="0" />
      </g>
    </g>
    <g
       id="g4185"
       transform="matrix(0.70571241,0,0,-0.70571241,523.70331,187.10743)"
       style="fill:#2dcedb;fill-opacity:1">
      <g
         id="g4187"
         clip-path="url(#clipPath18-5)"
         style="fill:#2dcedb;fill-opacity:1">
        <path
           d="M 55.058,36 37.024,36 28.692,55.316 C 28.505,55.773 28.253,56 28.003,56 27.753,56 27.497,55.773 27.306,55.316 L 18.981,36 0.94,36 C -0.05,36 -0.296,35.418 0.386,34.707 L 14.198,19.769 7.001,1.059 C 6.743,0.391 6.896,0 7.335,0 7.507,0 7.718,0.059 7.964,0.184 L 28.003,10.18 48.038,0.184 C 48.284,0.059 48.499,0 48.667,0 c 0.439,0 0.592,0.391 0.338,1.059 l -7.201,18.71 13.812,14.938 C 56.294,35.414 56.052,36 55.058,36"
           style="fill:#2dcedb;fill-opacity:1;fill-rule:nonzero;stroke:none"
           id="path4189"
           inkscape:connector-curvature="0" />
      </g>
    </g>
    <g
       style="fill:#2dcedb;fill-opacity:1"
       transform="matrix(0.70571241,0,0,-0.70571241,566.76375,187.10743)"
       id="g4191">
      <g
         style="fill:#2dcedb;fill-opacity:1"
         clip-path="url(#clipPath18-5)"
         id="g4193">
        <path
           inkscape:connector-curvature="0"
           id="path4195"
           style="fill:#2dcedb;fill-opacity:1;fill-rule:nonzero;stroke:none"
           d="M 55.058,36 37.024,36 28.692,55.316 C 28.505,55.773 28.253,56 28.003,56 27.753,56 27.497,55.773 27.306,55.316 L 18.981,36 0.94,36 C -0.05,36 -0.296,35.418 0.386,34.707 L 14.198,19.769 7.001,1.059 C 6.743,0.391 6.896,0 7.335,0 7.507,0 7.718,0.059 7.964,0.184 L 28.003,10.18 48.038,0.184 C 48.284,0.059 48.499,0 48.667,0 c 0.439,0 0.592,0.391 0.338,1.059 l -7.201,18.71 13.812,14.938 C 56.294,35.414 56.052,36 55.058,36" />
      </g>
    </g>
  </g>
</svg>
